<svg width="11193" height="2661" viewBox="0 0 11193 2661" fill="none" xmlns="http://www.w3.org/2000/svg">
<path d="M3706.35 1755.93L3252.91 2094.97L3238.35 2140.73H3589.87L3706.35 1755.93ZM3689.71 1710.17L3465.07 1371.13L3408.91 1556.25H3044.91L3650.19 728.41L3483.79 1304.57L3729.23 1678.97L4220.11 0.410378H3777.07L1923.79 2519.29H2337.71L2836.91 1830.81H3329.87L3273.71 2018.01L3689.71 1710.17ZM3694.44 2140.73H4347.56L4455.72 1853.69H4114.6L4474.44 628.57H4139.56L3694.44 2140.73ZM4454.13 2140.73H5107.25L5215.41 1853.69H4874.29L5234.13 628.57H4899.25L4454.13 2140.73ZM5981.33 628.57H5658.93L5213.81 2140.73H5536.21L5981.33 628.57ZM6285.18 1641.53H6129.18L6403.74 957.21L6285.18 1641.53ZM5935.74 2140.73L6043.9 1868.25H6249.82L6201.98 2140.73H6513.98L6719.9 628.57H6272.7L5609.18 2140.73H5935.74ZM6584.91 2140.73H6880.27L7061.23 1537.53L7088.27 2140.73H7339.95L7785.07 628.57H7481.39L7308.75 1213.05L7298.35 628.57H7030.03L6584.91 2140.73ZM8617.49 628.57H8037.17C7935.25 628.57 7870.77 657.69 7837.49 770.01L7515.09 1864.09C7456.85 2061.69 7575.41 2140.73 7716.85 2140.73H8126.61L8238.93 1853.69H7891.57C7847.89 1853.69 7831.25 1834.97 7845.81 1787.13L8101.65 917.69C8112.05 880.25 8126.61 871.93 8159.89 871.93H8261.81L8178.61 1158.97L8482.29 1088.25L8617.49 628.57ZM8270.84 2140.73H8855.32L8959.32 1853.69H8670.2L8774.2 1502.17H9046.68L9125.72 1233.85H8853.24L8951 901.05H9229.72L9310.84 628.57H8715.96L8270.84 2140.73Z" fill="white"/>
<path d="M3706.35 1755.93L3964.77 1834.15L4202.88 1047.54L3544.67 1539.69L3706.35 1755.93ZM3252.91 2094.97L3091.23 1878.73L3021.87 1930.59L2995.62 2013.11L3252.91 2094.97ZM3238.35 2140.73L2981.06 2058.87L2869.1 2410.73H3238.35V2140.73ZM3589.87 2140.73V2410.73H3790.24L3848.29 2218.95L3589.87 2140.73ZM3689.71 1710.17L3850.32 1927.21L4056.37 1774.73L3914.79 1561.04L3689.71 1710.17ZM3465.07 1371.13L3690.15 1222L3373.25 743.726L3206.7 1292.75L3465.07 1371.13ZM3408.91 1556.25V1826.25H3609.15L3667.28 1634.63L3408.91 1556.25ZM3044.91 1556.25L2826.95 1396.89L2513.02 1826.25H3044.91V1556.25ZM3650.19 728.41L3909.59 803.327L3432.23 569.051L3650.19 728.41ZM3483.79 1304.57L3224.39 1229.65L3189.97 1348.84L3257.98 1452.6L3483.79 1304.57ZM3729.23 1678.97L3503.42 1827L3824.17 2316.27L3988.37 1754.76L3729.23 1678.97ZM4220.11 0.410378L4479.25 76.1953L4580.38 -269.59H4220.11V0.410378ZM3777.07 0.410378V-269.59H3640.52L3559.59 -159.6L3777.07 0.410378ZM1923.79 2519.29L1706.31 2359.28L1389.93 2789.29H1923.79V2519.29ZM2337.71 2519.29V2789.29H2475.44L2556.3 2677.78L2337.71 2519.29ZM2836.91 1830.81V1560.81H2699.17L2618.32 1672.32L2836.91 1830.81ZM3329.87 1830.81L3588.48 1908.39L3692.76 1560.81H3329.87V1830.81ZM3273.71 2018.01L3015.1 1940.43L2781.87 2717.86L3434.32 2235.05L3273.71 2018.01ZM3544.67 1539.69L3091.23 1878.73L3414.59 2311.21L3868.03 1972.17L3544.67 1539.69ZM2995.62 2013.11L2981.06 2058.87L3495.64 2222.6L3510.2 2176.84L2995.62 2013.11ZM3238.35 2410.73H3589.87V1870.73H3238.35V2410.73ZM3848.29 2218.95L3964.77 1834.15L3447.93 1677.71L3331.45 2062.51L3848.29 2218.95ZM3914.79 1561.04L3690.15 1222L3239.99 1520.26L3464.63 1859.3L3914.79 1561.04ZM3206.7 1292.75L3150.54 1477.87L3667.28 1634.63L3723.44 1449.51L3206.7 1292.75ZM3408.91 1286.25H3044.91V1826.25H3408.91V1286.25ZM3262.86 1715.61L3868.14 887.77L3432.23 569.051L2826.95 1396.89L3262.86 1715.61ZM3390.79 653.494L3224.39 1229.65L3743.19 1379.49L3909.59 803.327L3390.79 653.494ZM3257.98 1452.6L3503.42 1827L3955.03 1530.94L3709.59 1156.54L3257.98 1452.6ZM3988.37 1754.76L4479.25 76.1953L3960.96 -75.3746L3470.08 1603.19L3988.37 1754.76ZM4220.11 -269.59H3777.07V270.41H4220.11V-269.59ZM3559.59 -159.6L1706.31 2359.28L2141.27 2679.3L3994.55 160.421L3559.59 -159.6ZM1923.79 2789.29H2337.71V2249.29H1923.79V2789.29ZM2556.3 2677.78L3055.5 1989.3L2618.32 1672.32L2119.12 2360.8L2556.3 2677.78ZM2836.91 2100.81H3329.87V1560.81H2836.91V2100.81ZM3071.26 1753.23L3015.1 1940.43L3532.32 2095.59L3588.48 1908.39L3071.26 1753.23ZM3434.32 2235.05L3850.32 1927.21L3529.1 1493.13L3113.1 1800.97L3434.32 2235.05ZM3694.44 2140.73L3435.43 2064.49L3333.51 2410.73H3694.44V2140.73ZM4347.56 2140.73V2410.73H4534.35L4600.22 2235.93L4347.56 2140.73ZM4455.72 1853.69L4708.38 1948.89L4845.99 1583.69H4455.72V1853.69ZM4114.6 1853.69L3855.54 1777.6L3753.89 2123.69H4114.6V1853.69ZM4474.44 628.57L4733.49 704.66L4835.15 358.57H4474.44V628.57ZM4139.56 628.57V358.57H3937.58L3880.55 552.328L4139.56 628.57ZM3694.44 2410.73H4347.56V1870.73H3694.44V2410.73ZM4600.22 2235.93L4708.38 1948.89L4203.06 1758.49L4094.9 2045.53L4600.22 2235.93ZM4455.72 1583.69H4114.6V2123.69H4455.72V1583.69ZM4373.65 1929.78L4733.49 704.66L4215.38 552.481L3855.54 1777.6L4373.65 1929.78ZM4474.44 358.57H4139.56V898.57H4474.44V358.57ZM3880.55 552.328L3435.43 2064.49L3953.45 2216.97L4398.57 704.813L3880.55 552.328ZM4454.13 2140.73L4195.11 2064.49L4093.19 2410.73H4454.13V2140.73ZM5107.25 2140.73V2410.73H5294.04L5359.9 2235.93L5107.25 2140.73ZM5215.41 1853.69L5468.06 1948.89L5605.68 1583.69H5215.41V1853.69ZM4874.29 1853.69L4615.23 1777.6L4513.58 2123.69H4874.29V1853.69ZM5234.13 628.57L5493.18 704.66L5594.83 358.57H5234.13V628.57ZM4899.25 628.57V358.57H4697.27L4640.23 552.328L4899.25 628.57ZM4454.13 2410.73H5107.25V1870.73H4454.13V2410.73ZM5359.9 2235.93L5468.06 1948.89L4962.75 1758.49L4854.59 2045.53L5359.9 2235.93ZM5215.41 1583.69H4874.29V2123.69H5215.41V1583.69ZM5133.34 1929.78L5493.18 704.66L4975.07 552.481L4615.23 1777.6L5133.34 1929.78ZM5234.13 358.57H4899.25V898.57H5234.13V358.57ZM4640.23 552.328L4195.11 2064.49L4713.14 2216.97L5158.26 704.813L4640.23 552.328ZM5981.33 628.57L6240.34 704.813L6342.26 358.57H5981.33V628.57ZM5658.93 628.57V358.57H5456.96L5399.92 552.328L5658.93 628.57ZM5213.81 2140.73L4954.8 2064.49L4852.88 2410.73H5213.81V2140.73ZM5536.21 2140.73V2410.73H5738.19L5795.22 2216.97L5536.21 2140.73ZM5981.33 358.57H5658.93V898.57H5981.33V358.57ZM5399.92 552.328L4954.8 2064.49L5472.82 2216.97L5917.94 704.813L5399.92 552.328ZM5213.81 2410.73H5536.21V1870.73H5213.81V2410.73ZM5795.22 2216.97L6240.34 704.813L5722.32 552.328L5277.2 2064.49L5795.22 2216.97ZM6285.18 1641.53V1911.53H6512.42L6551.21 1687.62L6285.18 1641.53ZM6129.18 1641.53L5878.59 1540.99L5729.93 1911.53H6129.18V1641.53ZM6403.74 957.21L6669.77 1003.3L6153.15 856.672L6403.74 957.21ZM5935.74 2140.73V2410.73H6119.05L6186.69 2240.35L5935.74 2140.73ZM6043.9 1868.25V1598.25H5860.58L5792.94 1768.64L6043.9 1868.25ZM6249.82 1868.25L6515.75 1914.94L6571.35 1598.25H6249.82V1868.25ZM6201.98 2140.73L5936.04 2094.04L5880.44 2410.73H6201.98V2140.73ZM6513.98 2140.73V2410.73H6749.7L6781.51 2177.16L6513.98 2140.73ZM6719.9 628.57L6987.43 665.002L7029.15 358.57H6719.9V628.57ZM6272.7 628.57V358.57H6096.32L6025.45 520.082L6272.7 628.57ZM5609.18 2140.73L5361.93 2032.24L5195.85 2410.73H5609.18V2140.73ZM6285.18 1371.53H6129.18V1911.53H6285.18V1371.53ZM6379.76 1742.07L6654.32 1057.75L6153.15 856.672L5878.59 1540.99L6379.76 1742.07ZM6137.7 911.119L6019.14 1595.44L6551.21 1687.62L6669.77 1003.3L6137.7 911.119ZM6186.69 2240.35L6294.85 1967.86L5792.94 1768.64L5684.78 2041.12L6186.69 2240.35ZM6043.9 2138.25H6249.82V1598.25H6043.9V2138.25ZM5983.88 1821.56L5936.04 2094.04L6467.91 2187.42L6515.75 1914.94L5983.88 1821.56ZM6201.98 2410.73H6513.98V1870.73H6201.98V2410.73ZM6781.51 2177.16L6987.43 665.002L6452.36 592.139L6246.44 2104.3L6781.51 2177.16ZM6719.9 358.57H6272.7V898.57H6719.9V358.57ZM6025.45 520.082L5361.93 2032.24L5856.42 2249.22L6519.94 737.059L6025.45 520.082ZM5609.18 2410.73H5935.74V1870.73H5609.18V2410.73ZM6584.91 2140.73L6325.89 2064.49L6223.97 2410.73H6584.91V2140.73ZM6880.27 2140.73V2410.73H7081.15L7138.88 2218.31L6880.27 2140.73ZM7061.23 1537.53L7330.96 1525.44L6802.61 1459.95L7061.23 1537.53ZM7088.27 2140.73L6818.54 2152.82L6830.1 2410.73H7088.27V2140.73ZM7339.95 2140.73V2410.73H7541.92L7598.96 2216.97L7339.95 2140.73ZM7785.07 628.57L8044.08 704.813L8146 358.57H7785.07V628.57ZM7481.39 628.57V358.57H7279.61L7222.45 552.086L7481.39 628.57ZM7308.75 1213.05L7038.79 1217.85L7567.69 1289.53L7308.75 1213.05ZM7298.35 628.57L7568.3 623.767L7563.58 358.57H7298.35V628.57ZM7030.03 628.57V358.57H6828.05L6771.01 552.328L7030.03 628.57ZM6584.91 2410.73H6880.27V1870.73H6584.91V2410.73ZM7138.88 2218.31L7319.84 1615.11L6802.61 1459.95L6621.65 2063.15L7138.88 2218.31ZM6791.5 1549.62L6818.54 2152.82L7358 2128.64L7330.96 1525.44L6791.5 1549.62ZM7088.27 2410.73H7339.95V1870.73H7088.27V2410.73ZM7598.96 2216.97L8044.08 704.813L7526.05 552.328L7080.93 2064.49L7598.96 2216.97ZM7785.07 358.57H7481.39V898.57H7785.07V358.57ZM7222.45 552.086L7049.81 1136.57L7567.69 1289.53L7740.33 705.055L7222.45 552.086ZM7578.7 1208.25L7568.3 623.767L7028.39 633.374L7038.79 1217.85L7578.7 1208.25ZM7298.35 358.57H7030.03V898.57H7298.35V358.57ZM6771.01 552.328L6325.89 2064.49L6843.92 2216.97L7289.04 704.813L6771.01 552.328ZM8617.49 628.57L8876.52 704.755L8978.34 358.57H8617.49V628.57ZM7837.49 770.01L7578.61 693.307L7578.56 693.499L7578.5 693.692L7837.49 770.01ZM7515.09 1864.09L7774.07 1940.42L7774.08 1940.42L7774.08 1940.41L7515.09 1864.09ZM8126.61 2140.73V2410.73H8310.89L8378.04 2239.12L8126.61 2140.73ZM8238.93 1853.69L8490.36 1952.08L8634.52 1583.69H8238.93V1853.69ZM7845.81 1787.13L8104.11 1865.74L8104.47 1864.55L8104.83 1863.35L7845.81 1787.13ZM8101.65 917.69L8360.67 993.909L8361.25 991.936L8361.8 989.954L8101.65 917.69ZM8261.81 871.93L8521.13 947.097L8621.18 601.93H8261.81V871.93ZM8178.61 1158.97L7919.28 1083.8L7790.97 1526.47L8239.85 1421.93L8178.61 1158.97ZM8482.29 1088.25L8543.53 1351.21L8696.89 1315.5L8741.32 1164.44L8482.29 1088.25ZM8617.49 358.57H8037.17V898.57H8617.49V358.57ZM8037.17 358.57C7966.07 358.57 7862.48 367.49 7765.13 430.343C7661.23 497.433 7607.02 597.429 7578.61 693.307L8096.36 846.714C8099.01 837.781 8099.25 840.971 8093.23 850.021C8086.35 860.378 8074.66 873.272 8058.04 883.998C8042.14 894.267 8028.99 897.859 8024.31 898.864C8020.68 899.642 8023.56 898.57 8037.17 898.57V358.57ZM7578.5 693.692L7256.1 1787.77L7774.08 1940.41L8096.48 846.329L7578.5 693.692ZM7256.1 1787.76C7210.23 1943.4 7217.53 2120.7 7340.46 2257.2C7451.57 2380.57 7605.43 2410.73 7716.85 2410.73V1870.73C7705.6 1870.73 7702.6 1869.04 7706.39 1870.36C7710.67 1871.85 7725.83 1878.18 7741.72 1895.83C7759.05 1915.07 7767.13 1936.64 7769.33 1951.7C7771.14 1964.12 7767.62 1962.31 7774.07 1940.42L7256.1 1787.76ZM7716.85 2410.73H8126.61V1870.73H7716.85V2410.73ZM8378.04 2239.12L8490.36 1952.08L7987.49 1755.3L7875.17 2042.34L8378.04 2239.12ZM8238.93 1583.69H7891.57V2123.69H8238.93V1583.69ZM7891.57 1583.69C7897.46 1583.69 7919.84 1584 7949.66 1593.98C7982.25 1604.9 8028.42 1629.26 8064.75 1678.91C8100.88 1728.29 8109.85 1778.87 8110.6 1811.51C8111.29 1841.6 8105.37 1861.6 8104.11 1865.74L7587.51 1708.52C7574.9 1749.94 7541.6 1878.41 7628.95 1997.79C7717.36 2118.62 7851.07 2123.69 7891.57 2123.69V1583.69ZM8104.83 1863.35L8360.67 993.909L7842.63 841.472L7586.79 1710.91L8104.83 1863.35ZM8361.8 989.954C8361.16 992.241 8357.18 1006.55 8346.66 1025.55C8335.08 1046.46 8315.18 1073.76 8283.2 1097.51C8251.17 1121.3 8219.29 1132.44 8196.2 1137.52C8175.54 1142.06 8160.98 1141.93 8159.89 1141.93V601.93C8130.32 601.93 8043.26 603.058 7961.18 664.03C7878.78 725.245 7851.68 808.791 7841.5 845.427L8361.8 989.954ZM8159.89 1141.93H8261.81V601.93H8159.89V1141.93ZM8002.48 796.764L7919.28 1083.8L8437.93 1234.14L8521.13 947.097L8002.48 796.764ZM8239.85 1421.93L8543.53 1351.21L8421.05 825.287L8117.37 896.007L8239.85 1421.93ZM8741.32 1164.44L8876.52 704.755L8358.46 552.385L8223.26 1012.07L8741.32 1164.44ZM8270.84 2140.73L8011.83 2064.49L7909.91 2410.73H8270.84V2140.73ZM8855.32 2140.73V2410.73H9044.67L9109.18 2232.71L8855.32 2140.73ZM8959.32 1853.69L9213.18 1945.67L9344.33 1583.69H8959.32V1853.69ZM8670.2 1853.69L8411.3 1777.09L8308.75 2123.69H8670.2V1853.69ZM8774.2 1502.17V1232.17H8572.52L8515.3 1425.57L8774.2 1502.17ZM9046.68 1502.17V1772.17H9248.62L9305.68 1578.46L9046.68 1502.17ZM9125.72 1233.85L9384.72 1310.14L9486.73 963.85H9125.72V1233.85ZM8853.24 1233.85L8594.19 1157.75L8492.52 1503.85H8853.24V1233.85ZM8951 901.05V631.05H8748.91L8691.95 824.953L8951 901.05ZM9229.72 901.05V1171.05H9431.05L9488.5 978.09L9229.72 901.05ZM9310.84 628.57L9569.62 705.61L9672.94 358.57H9310.84V628.57ZM8715.96 628.57V358.57H8513.99L8456.95 552.328L8715.96 628.57ZM8270.84 2410.73H8855.32V1870.73H8270.84V2410.73ZM9109.18 2232.71L9213.18 1945.67L8705.47 1761.72L8601.47 2048.76L9109.18 2232.71ZM8959.32 1583.69H8670.2V2123.69H8959.32V1583.69ZM8929.11 1930.29L9033.11 1578.77L8515.3 1425.57L8411.3 1777.09L8929.11 1930.29ZM8774.2 1772.17H9046.68V1232.17H8774.2V1772.17ZM9305.68 1578.46L9384.72 1310.14L8866.73 1157.56L8787.69 1425.88L9305.68 1578.46ZM9125.72 963.85H8853.24V1503.85H9125.72V963.85ZM9112.3 1309.95L9210.06 977.148L8691.95 824.953L8594.19 1157.75L9112.3 1309.95ZM8951 1171.05H9229.72V631.05H8951V1171.05ZM9488.5 978.09L9569.62 705.61L9052.07 551.53L8970.95 824.01L9488.5 978.09ZM9310.84 358.57H8715.96V898.57H9310.84V358.57ZM8456.95 552.328L8011.83 2064.49L8529.86 2216.97L8974.98 704.813L8456.95 552.328Z" fill="#FE0000"/>
</svg>
