<svg width="11194" height="2953" viewBox="0 0 11194 2953" fill="none" xmlns="http://www.w3.org/2000/svg">
<rect x="1210" width="8864" height="2953" rx="80" fill="#FE0000"/>
<path d="M3706.85 1988.93L3253.41 2327.97L3238.85 2373.73H3590.37L3706.85 1988.93ZM3690.21 1943.17L3465.57 1604.13L3409.41 1789.25H3045.41L3650.69 961.41L3484.29 1537.57L3729.73 1911.97L4220.61 233.41H3777.57L1924.29 2752.29H2338.21L2837.41 2063.81H3330.37L3274.21 2251.01L3690.21 1943.17ZM3694.94 2373.73H4348.06L4456.22 2086.69H4115.1L4474.94 861.57H4140.06L3694.94 2373.73ZM4454.63 2373.73H5107.75L5215.91 2086.69H4874.79L5234.63 861.57H4899.75L4454.63 2373.73ZM5981.83 861.57H5659.43L5214.31 2373.73H5536.71L5981.83 861.57ZM6285.68 1874.53H6129.68L6404.24 1190.21L6285.68 1874.53ZM5936.24 2373.73L6044.4 2101.25H6250.32L6202.48 2373.73H6514.48L6720.4 861.57H6273.2L5609.68 2373.73H5936.24ZM6585.41 2373.73H6880.77L7061.73 1770.53L7088.77 2373.73H7340.45L7785.57 861.57H7481.89L7309.25 1446.05L7298.85 861.57H7030.53L6585.41 2373.73ZM8617.99 861.57H8037.67C7935.75 861.57 7871.27 890.69 7837.99 1003.01L7515.59 2097.09C7457.35 2294.69 7575.91 2373.73 7717.35 2373.73H8127.11L8239.43 2086.69H7892.07C7848.39 2086.69 7831.75 2067.97 7846.31 2020.13L8102.15 1150.69C8112.55 1113.25 8127.11 1104.93 8160.39 1104.93H8262.31L8179.11 1391.97L8482.79 1321.25L8617.99 861.57ZM8271.34 2373.73H8855.82L8959.82 2086.69H8670.7L8774.7 1735.17H9047.18L9126.22 1466.85H8853.74L8951.5 1134.05H9230.22L9311.34 861.57H8716.46L8271.34 2373.73Z" fill="white"/>
</svg>
